<svg xmlns="http://www.w3.org/2000/svg" version="1.1" width="232.0386" height="125.6736" viewBox="0 0 232.0386 125.6736">
<g>
<path transform="matrix(1,0,0,-1,1,124.6736)" d="M12.2151 9.275H7.2799V.8399H0V27.9998H12.2151C13.5215 27.9998 14.7759 27.7781 15.9775 27.3348 17.1791 26.8914 18.2407 26.2732 19.1625 25.4798 20.084 24.6866 20.8191 23.73 21.3676 22.61 21.9158 21.4897 22.1899 20.2649 22.1899 18.9349 22.1899 17.5816 21.9158 16.3216 21.3676 15.1549 20.8191 13.9881 20.084 12.9674 19.1625 12.0923 18.2407 11.2173 17.1791 10.529 15.9775 10.0273 14.7759 9.5258 13.5215 9.275 12.2151 9.275ZM11.6901 21.945H7.4548V16.0999H11.6901C12.1099 16.0999 12.5067 16.1756 12.8801 16.3273 13.2534 16.4789 13.5799 16.6833 13.86 16.9515 14.1401 17.2199 14.3617 17.5292 14.525 17.8733 14.6883 18.2231 14.7699 18.6024 14.7699 19.0225 14.7699 19.4423 14.6883 19.8215 14.525 20.1716 14.3617 20.5157 14.1401 20.825 13.86 21.0932 13.5799 21.3616 13.2534 21.5657 12.8801 21.7174 12.5067 21.869 12.1099 21.945 11.6901 21.945ZM57.3687 .8399 52.6436 9.2398H48.0586L48.0937 .8399H40.6037V27.9998H54.2186C54.8719 27.9998 55.5369 27.8773 56.2136 27.6324 56.8902 27.3875 57.5436 27.0607 58.1737 26.6525 58.8036 26.244 59.387 25.7831 59.9236 25.2697 60.4604 24.7567 60.9154 24.2314 61.2887 23.6948 61.7553 23.0182 62.1111 22.2307 62.3563 21.3324 62.6012 20.4341 62.7236 19.5766 62.7236 18.76 62.7236 17.4064 62.4087 16.1464 61.7786 14.98 61.1487 13.8132 60.2736 12.8333 59.1537 12.0399L65.5237 .8399ZM52.0838 21.945H47.8485V16.0999H52.0838C52.5036 16.0999 52.9004 16.1756 53.2738 16.3273 53.6471 16.4789 53.9736 16.6833 54.2537 16.9515 54.5338 17.2199 54.7554 17.5292 54.9187 17.8733 55.082 18.2231 55.1636 18.6024 55.1636 19.0225 55.1636 19.4423 55.082 19.8215 54.9187 20.1716 54.7554 20.5157 54.5338 20.825 54.2537 21.0932 53.9736 21.3616 53.6471 21.5657 53.2738 21.7174 52.9004 21.869 52.5036 21.945 52.0838 21.945ZM94.9623 0C92.9557 0 91.0774 .3733 89.3273 1.12 87.5772 1.8666 86.0491 2.8874 84.7423 4.1825 83.4358 5.4774 82.4031 6.9999 81.6449 8.75 80.8866 10.4998 80.5073 12.3664 80.5073 14.3498 80.5073 16.3332 80.8866 18.1998 81.6449 19.95 82.4031 21.6998 83.4358 23.2223 84.7423 24.5174 86.0491 25.8123 87.5772 26.839 89.3273 27.5973 91.0774 28.3558 92.9557 28.7348 94.9623 28.7348 96.9457 28.7348 98.8183 28.3558 100.5797 27.5973 102.3415 26.839 103.8756 25.8123 105.1824 24.5174 106.4889 23.2223 107.5215 21.6998 108.2798 19.95 109.038 18.1998 109.4173 16.3332 109.4173 14.3498 109.4173 12.3664 109.038 10.4998 108.2798 8.75 107.5215 6.9999 106.4889 5.4774 105.1824 4.1825 103.8756 2.8874 102.3415 1.8666 100.5797 1.12 98.8183 .3733 96.9457 0 94.9623 0ZM94.9623 21.8049C93.9356 21.8049 92.9849 21.6006 92.1098 21.1924 91.2348 20.7839 90.4825 20.2416 89.8523 19.565 89.2225 18.8881 88.7264 18.1006 88.365 17.2023 88.0033 16.304 87.8224 15.3533 87.8224 14.3498 87.8224 13.3699 88.0033 12.4248 88.365 11.5149 88.7264 10.605 89.2225 9.8116 89.8523 9.1349 90.4825 8.4583 91.2348 7.9157 92.1098 7.5073 92.9849 7.0991 93.9356 6.895 94.9623 6.895 95.989 6.895 96.9398 7.0991 97.8148 7.5073 98.6899 7.9157 99.4422 8.4583 100.0723 9.1349 100.7022 9.8116 101.1983 10.605 101.5597 11.5149 101.9214 12.4248 102.1022 13.3699 102.1022 14.3498 102.1022 15.3533 101.9214 16.304 101.5597 17.2023 101.1983 18.1006 100.7022 18.8881 100.0723 19.565 99.4422 20.2416 98.6899 20.7839 97.8148 21.1924 96.9398 21.6006 95.989 21.8049 94.9623 21.8049" fill="#074597" fill-rule="evenodd"/>
<path transform="matrix(1,0,0,-1,1,124.6736)" d="M146.696 21.28H139.2409V.8399H131.8561V21.28H124.401L123.9109 21.7698V27.9998H147.1859V21.7698ZM178.6898 .8399 177.2898 4.585H168.9248L167.5247 .8399H159.8598L169.9047 27.9998H176.3099L186.3547 .8399ZM173.1249 18.095 170.9549 10.9199H175.2599ZM221.8836 .8399 217.1585 9.2398H212.5735L212.6086 .8399H205.1186V27.9998H218.7334C219.3868 27.9998 220.0518 27.8773 220.7285 27.6324 221.4051 27.3875 222.0585 27.0607 222.6886 26.6525 223.3185 26.244 223.9019 25.7831 224.4385 25.2697 224.9753 24.7567 225.4303 24.2314 225.8036 23.6948 226.2702 23.0182 226.626 22.2307 226.8711 21.3324 227.1161 20.4341 227.2385 19.5766 227.2385 18.76 227.2385 17.4064 226.9236 16.1464 226.2934 14.98 225.6636 13.8132 224.7885 12.8333 223.6686 12.0399L230.0386 .8399ZM216.5987 21.945H212.3634V16.0999H216.5987C217.0185 16.0999 217.4153 16.1756 217.7887 16.3273 218.162 16.4789 218.4885 16.6833 218.7686 16.9515 219.0487 17.2199 219.2703 17.5292 219.4336 17.8733 219.5969 18.2231 219.6785 18.6024 219.6785 19.0225 219.6785 19.4423 219.5969 19.8215 219.4336 20.1716 219.2703 20.5157 219.0487 20.825 218.7686 21.0932 218.4885 21.3616 218.162 21.5657 217.7887 21.7174 217.4153 21.869 217.0185 21.945 216.5987 21.945" fill="#074597" fill-rule="evenodd"/>
<path transform="matrix(1,0,0,-1,1,124.6736)" d="M66.6828 74.5965 7.7854 105.9347 7.7003 92.1033 68.4989 58.5471 113.0009 82.7909 99.417 90.5012 70.1036 74.7916 68.5517 59.7787Z" fill="#a70d15" fill-rule="evenodd"/>
<path transform="matrix(1,0,0,-1,1,124.6736)" d="M159.268 121.2795 134.0453 108.8966 146.0106 102.2865 160.5875 110.2929 178.0971 102.1963 190.0925 108.3932 161.6343 121.4677 160.5577 111.0529Z" fill="#a70a28" fill-rule="evenodd"/>
<path transform="matrix(1,0,0,-1,1,124.6736)" d="M40.9669 108.8966 53.2993 102.2638 68.1656 110.1223 160.5628 58.4184 222.3386 95.5789 222.2906 108.4062 162.0181 74.0636 160.5535 59.8972 158.6801 74.7522 69.7844 123.6736 68.4051 110.3332 66.7684 123.3105Z" fill="#234b9c" fill-rule="evenodd"/>
</g>
</svg>
